<svg xmlns="http://www.w3.org/2000/svg" width="394" height="200" viewBox="0 0 394 200"><defs><style>.a{fill:#fff;}.b{fill:#ecebeb;}.c{fill:#b9b8b8;}.d{fill:#f18023;}.e{fill:#232323;}.f{fill:#d2d4d5;}.g{fill:#f48002;}.h{fill:#999fa5;}.i{fill:#bddbee;}.j{fill:#d3dce3;}.k{fill:#0090fc;}.l{fill:#3a8bc4;}.m{fill:#e2e2e2;}.n{fill:#858d93;}.o,.p{fill:#747d81;}.p{opacity:0.5;}.q{fill:#caccce;}.r{fill:#b7babd;}.s{fill:#bfc1c3;}.t{fill:#d9dbdc;}.u{fill:#4d4d4e;}.v{fill:#6f6f6f;}.w{fill:#3099b5;}.x{fill:#345c83;}.y{fill:#ee7f22;}.z{fill:#b6b6b6;}.aa{fill:#808082;}.ab{fill:#752d21;}.ac{fill:#e24426;}.ad{fill:#34c1d2;}.ae{fill:#0073be;}.af{fill:#a1a1a1;}.ag{fill:silver;}</style></defs><title>documentation-screenshot</title><rect class="a" y="14" width="394" height="185.5"/><rect class="b" x="197" y="14" width="197" height="186"/><path class="a" d="M378,200V179a2,2,0,0,0-2-2H227a2,2,0,0,0-2,2v21H378Z"/><rect class="b" x="16" y="138" width="169" height="26" rx="1" ry="1"/><polygon class="c" points="23.75 43.86 23.75 41.33 24.59 41.33 24.59 44.7 17 44.7 17 41.33 17.84 41.33 17.84 43.86 23.75 43.86"/><path class="d" d="M18.78,40.86l4.13,0.87,0.18-.82L19,40Zm0.54-2,3.82,1.78,0.36-.76-3.82-1.78ZM20.39,37l3.24,2.7,0.54-.64-3.24-2.7Zm2.09-2-0.69.51,2.52,3.39L25,38.39Zm-3.8,7.77h4.23V41.93H18.68v0.84Z"/><rect class="e" y="14.02" width="394" height="13.98"/><path class="f" d="M4,0H390a4,4,0,0,1,4,4V14a0,0,0,0,1,0,0H0a0,0,0,0,1,0,0V4A4,4,0,0,1,4,0Z"/><rect class="g" x="74" y="37" width="23" height="7"/><rect class="h" x="51" y="37" width="21" height="7"/><rect class="h" x="99" y="37" width="11" height="7"/><rect class="h" x="112" y="37" width="12" height="7"/><rect class="h" x="126" y="37" width="14" height="7"/><rect class="h" x="142" y="37" width="16" height="7"/><rect class="h" x="160" y="37" width="25" height="7"/><rect class="i" x="176" y="58" width="9" height="6" rx="0.26" ry="0.26"/><path class="j" d="M172,59v4H160V59h12m1-1H159v6h14V58h0Z"/><path class="j" d="M115,62v1h-8V62h8m1-1H106v3h10V61h0Z"/><rect class="b" x="16" y="83" width="169" height="1"/><rect class="b" x="16" y="94" width="169" height="1"/><rect class="b" x="16" y="105" width="169" height="1"/><rect class="k" x="17.5" y="98.01" width="33" height="3"/><rect class="b" x="16" y="69.01" width="169" height="1"/><circle class="l" cx="17.5" cy="99.5" r="1.5"/><circle class="l" cx="50.5" cy="99.5" r="1.5"/><rect class="k" x="17.5" y="87.01" width="13" height="3"/><circle class="l" cx="17.5" cy="88.5" r="1.5"/><circle class="l" cx="30.5" cy="88.5" r="1.5"/><rect class="k" x="37.5" y="87.01" width="41" height="3"/><circle class="l" cx="37.5" cy="88.5" r="1.5"/><circle class="l" cx="78.5" cy="88.5" r="1.5"/><rect class="k" x="17.5" y="76.01" width="40" height="3"/><circle class="l" cx="17.5" cy="77.5" r="1.5"/><circle class="l" cx="57.5" cy="77.5" r="1.5"/><rect class="k" x="57.5" y="98.01" width="14" height="3"/><circle class="l" cx="57.5" cy="99.5" r="1.5"/><circle class="l" cx="71.5" cy="99.5" r="1.5"/><rect class="k" x="85.5" y="98.01" width="5" height="3"/><circle class="l" cx="85.5" cy="99.5" r="1.5"/><circle class="l" cx="90.5" cy="99.5" r="1.5"/><rect class="k" x="64.5" y="76.01" width="9" height="3"/><circle class="l" cx="64.5" cy="77.5" r="1.5"/><circle class="l" cx="73.5" cy="77.5" r="1.5"/><rect class="b" x="16" y="117" width="169" height="1"/><rect class="m" x="197" y="158" width="197" height="1"/><rect class="k" x="17.5" y="110.01" width="20" height="3"/><circle class="l" cx="17.5" cy="111.5" r="1.5"/><circle class="l" cx="37.5" cy="111.5" r="1.5"/><rect class="k" x="45.5" y="110.01" width="18" height="3"/><circle class="l" cx="45.5" cy="111.5" r="1.5"/><circle class="l" cx="63.5" cy="111.5" r="1.5"/><circle class="l" cx="78.5" cy="99.5" r="1.5"/><rect class="k" x="330.5" y="149.01" width="20" height="3"/><circle class="l" cx="330.5" cy="150.5" r="1.5"/><circle class="l" cx="350.5" cy="150.5" r="1.5"/><rect class="n" x="364.5" y="149.01" width="12" height="3"/><circle class="o" cx="364.5" cy="150.5" r="1.5"/><circle class="o" cx="376.5" cy="157.6" r="1.5"/><circle class="p" cx="357.5" cy="150.5" r="1.5"/><rect class="q" x="19" y="58.01" width="79" height="6"/><circle class="r" cx="19" cy="61" r="3"/><circle class="r" cx="98" cy="61" r="3"/><rect class="a" x="225" y="68" width="153" height="74" rx="2" ry="2"/><circle class="s" cx="381" cy="7" r="3"/><circle class="s" cx="373" cy="7" r="3"/><circle class="s" cx="365" cy="7" r="3"/><rect class="t" x="10" y="4" width="312" height="6"/><circle class="u" cx="240" cy="77" r="1"/><rect class="v" x="234" y="76" width="12" height="2"/><rect class="w" x="252" y="76" width="18" height="2"/><rect class="x" x="282" y="76" width="12" height="2"/><circle class="w" cx="276" cy="77" r="1"/><circle class="y" cx="240" cy="109" r="1"/><rect class="z" x="234" y="108" width="30" height="2"/><rect class="z" x="270" y="108" width="6" height="2"/><path class="b" d="M189,84h11a0,0,0,0,1,0,0V94a0,0,0,0,1,0,0H189a1,1,0,0,1-1-1V85A1,1,0,0,1,189,84Z"/><polygon class="g" points="209 73.17 219 73.17 214 68 209 73.17"/><polygon class="aa" points="214 85.17 219 80 209 80 214 85.17"/><rect class="q" x="226.88" y="58.02" width="53.25" height="3.75"/><circle class="r" cx="226.88" cy="59.88" r="1.87"/><circle class="r" cx="280.13" cy="59.88" r="1.88"/><circle class="u" cx="234" cy="77" r="1"/><circle class="u" cx="246" cy="77" r="1"/><rect class="v" x="256" y="84" width="6" height="2"/><circle class="u" cx="256" cy="85" r="1"/><circle class="u" cx="262" cy="85" r="1"/><circle class="ab" cx="250" cy="85" r="1"/><circle class="ac" cx="268" cy="85" r="1"/><rect class="v" x="238" y="84" width="6" height="2"/><circle class="u" cx="238" cy="85" r="1"/><circle class="u" cx="244" cy="85" r="1"/><rect class="v" x="256" y="92" width="6" height="2"/><circle class="u" cx="256" cy="93" r="1"/><circle class="u" cx="262" cy="93" r="1"/><circle class="ab" cx="250" cy="93" r="1"/><circle class="w" cx="268" cy="93" r="1"/><rect class="v" x="238" y="92" width="6" height="2"/><circle class="u" cx="238" cy="93" r="1"/><circle class="u" cx="244" cy="93" r="1"/><rect class="v" x="256" y="100" width="6" height="2"/><circle class="u" cx="256" cy="101" r="1"/><circle class="u" cx="262" cy="101" r="1"/><circle class="ab" cx="250" cy="101" r="1"/><circle class="ad" cx="268" cy="101" r="1"/><rect class="v" x="238" y="100" width="6" height="2"/><circle class="u" cx="238" cy="101" r="1"/><circle class="u" cx="244" cy="101" r="1"/><rect class="v" x="234" y="116" width="6" height="2"/><circle class="u" cx="234" cy="117" r="1"/><circle class="u" cx="240" cy="117" r="1"/><rect class="v" x="234" y="132" width="6" height="2"/><circle class="u" cx="234" cy="133" r="1"/><circle class="u" cx="240" cy="133" r="1"/><circle class="ad" cx="270" cy="77" r="1"/><circle class="ad" cx="252" cy="77" r="1"/><circle class="ae" cx="282" cy="77" r="1"/><circle class="ae" cx="294" cy="77" r="1"/><circle class="af" cx="276" cy="109" r="1"/><circle class="af" cx="270" cy="109" r="1"/><circle class="af" cx="234" cy="109" r="1"/><circle class="af" cx="264" cy="109" r="1"/><circle class="y" cx="268" cy="125" r="1"/><rect class="u" x="274" y="124" width="12" height="2"/><rect class="w" x="238" y="124" width="24" height="2"/><circle class="v" cx="286" cy="125" r="1"/><circle class="ad" cx="238" cy="125" r="1"/><circle class="ad" cx="262" cy="125" r="1"/><rect class="x" x="292" y="124" width="20" height="2"/><circle class="ae" cx="292" cy="125" r="1"/><circle class="ae" cx="312" cy="125" r="1"/><circle class="v" cx="274" cy="125" r="1"/><circle class="u" cx="240" cy="186" r="1"/><rect class="v" x="234" y="185" width="12" height="2"/><rect class="w" x="252" y="185" width="25" height="2"/><rect class="x" x="289" y="185" width="5" height="2"/><circle class="z" cx="283" cy="186" r="1"/><polygon class="aa" points="209 182.17 219 182.17 214 177 209 182.17"/><polygon class="aa" points="214 194.17 219 189 209 189 214 194.17"/><rect class="q" x="226.88" y="167.02" width="74.25" height="3.75"/><circle class="r" cx="226.88" cy="168.88" r="1.87"/><circle class="r" cx="301.13" cy="168.88" r="1.88"/><rect class="q" x="17.88" y="128.25" width="11.25" height="3.75"/><circle class="r" cx="17.88" cy="130.11" r="1.88"/><circle class="r" cx="29.13" cy="130.11" r="1.88"/><circle class="u" cx="234" cy="186" r="1"/><circle class="u" cx="246" cy="186" r="1"/><rect class="v" x="256" y="193" width="6" height="2"/><circle class="u" cx="256" cy="194" r="1"/><circle class="u" cx="262" cy="194" r="1"/><circle class="ab" cx="250" cy="194" r="1"/><circle class="ac" cx="268" cy="194" r="1"/><rect class="v" x="238" y="193" width="6" height="2"/><circle class="u" cx="238" cy="194" r="1"/><circle class="u" cx="244" cy="194" r="1"/><circle class="ad" cx="277" cy="186" r="1"/><circle class="ad" cx="252" cy="186" r="1"/><circle class="ae" cx="289" cy="186" r="1"/><circle class="ae" cx="294" cy="186" r="1"/><circle class="y" cx="53" cy="144" r="1"/><rect class="u" x="59" y="143" width="12" height="2"/><rect class="w" x="23" y="143" width="24" height="2"/><circle class="v" cx="71" cy="144" r="1"/><circle class="ad" cx="23" cy="144" r="1"/><circle class="ad" cx="47" cy="144" r="1"/><rect class="x" x="77" y="143" width="30" height="2"/><circle class="ae" cx="77" cy="144" r="1"/><circle class="ae" cx="107" cy="144" r="1"/><circle class="v" cx="59" cy="144" r="1"/><circle class="y" cx="65" cy="158" r="1"/><rect class="u" x="71" y="157" width="16" height="2"/><rect class="w" x="23" y="157" width="36" height="2"/><circle class="v" cx="87" cy="158" r="1"/><circle class="ad" cx="23" cy="158" r="1"/><circle class="ad" cx="59" cy="158" r="1"/><rect class="x" x="93" y="157" width="20" height="2"/><circle class="ae" cx="93" cy="158" r="1"/><circle class="ae" cx="113" cy="158" r="1"/><circle class="v" cx="71" cy="158" r="1"/><rect class="m" x="16" y="150" width="169" height="1"/><rect class="b" x="16" y="184.77" width="168" height="1"/><rect class="q" x="18.87" y="175.02" width="11.25" height="3.75"/><circle class="r" cx="18.87" cy="176.87" r="1.88"/><circle class="r" cx="30.12" cy="176.87" r="1.88"/><rect class="ag" x="66" y="191.77" width="76" height="2"/><rect class="ag" x="24" y="191.77" width="20" height="2"/><circle class="ag" cx="142" cy="192.77" r="1"/><circle class="ag" cx="24" cy="192.77" r="1"/><circle class="ag" cx="44" cy="192.77" r="1"/><circle class="ag" cx="66" cy="192.77" r="1"/><rect class="b" x="16" y="184.77" width="1" height="14.73"/><rect class="b" x="184" y="184.77" width="1" height="14.73"/></svg>